<svg width="20" height="21" viewBox="0 0 20 21" fill="none" xmlns="http://www.w3.org/2000/svg">
<path d="M18.3332 7.41831V10.7516M8.5415 5.33497H5.6665C4.26637 5.33497 3.56631 5.33497 3.03153 5.60745C2.56112 5.84714 2.17867 6.22959 1.93899 6.69999C1.6665 7.23477 1.6665 7.93484 1.6665 9.33497L1.6665 10.335C1.66651 11.1115 1.66651 11.4998 1.79337 11.8061C1.96253 12.2145 2.28699 12.5389 2.69536 12.7081C3.00165 12.835 3.38994 12.835 4.16651 12.835V16.3766C4.16651 16.5701 4.16651 16.6668 4.17453 16.7483C4.25247 17.5396 4.87852 18.1657 5.66981 18.2436C5.75129 18.2516 5.84803 18.2516 6.04151 18.2516C6.23498 18.2516 6.33172 18.2516 6.4132 18.2436C7.2045 18.1657 7.83054 17.5396 7.90848 16.7483C7.91651 16.6668 7.91651 16.5701 7.91651 16.3766V12.835H8.54151C10.0135 12.835 11.8142 13.624 13.2034 14.3813C14.0139 14.8231 14.4191 15.044 14.6845 15.0115C14.9306 14.9814 15.1167 14.8709 15.2609 14.6692C15.4165 14.4518 15.4165 14.0166 15.4165 13.1464V5.02354C15.4165 4.1533 15.4165 3.71818 15.2609 3.50071C15.1167 3.29905 14.9306 3.18855 14.6845 3.15841C14.4191 3.1259 14.0139 3.3468 13.2034 3.7886C11.8142 4.5459 10.0135 5.33497 8.5415 5.33497Z" stroke="#1F2126" stroke-width="1.5" stroke-linecap="round" stroke-linejoin="round"/>
</svg>
