<svg width="20" height="20" viewBox="0 0 20 20" fill="none" xmlns="http://www.w3.org/2000/svg">
<path d="M4.99984 8.33268V11.666M14.9998 8.33268V11.666M1.6665 6.83268L1.6665 13.166C1.6665 14.0994 1.6665 14.5661 1.84816 14.9227C2.00795 15.2363 2.26292 15.4912 2.57652 15.651C2.93304 15.8327 3.39975 15.8327 4.33317 15.8327L15.6665 15.8327C16.5999 15.8327 17.0666 15.8327 17.4232 15.651C17.7368 15.4912 17.9917 15.2363 18.1515 14.9227C18.3332 14.5661 18.3332 14.0994 18.3332 13.166V6.83268C18.3332 5.89926 18.3332 5.43255 18.1515 5.07603C17.9917 4.76243 17.7368 4.50746 17.4232 4.34767C17.0666 4.16602 16.5999 4.16602 15.6665 4.16602L4.33317 4.16602C3.39975 4.16602 2.93304 4.16602 2.57652 4.34767C2.26292 4.50746 2.00795 4.76243 1.84816 5.07603C1.6665 5.43255 1.6665 5.89926 1.6665 6.83268ZM12.0832 9.99935C12.0832 11.1499 11.1504 12.0827 9.99984 12.0827C8.84924 12.0827 7.9165 11.1499 7.9165 9.99935C7.9165 8.84876 8.84924 7.91602 9.99984 7.91602C11.1504 7.91602 12.0832 8.84876 12.0832 9.99935Z" stroke="#313C49" stroke-width="1.5" stroke-linecap="round" stroke-linejoin="round"/>
</svg>
