<svg width="20" height="23" viewBox="0 0 20 23" fill="none" xmlns="http://www.w3.org/2000/svg">
<path d="M7.35395 20.168C8.05908 20.7903 8.98533 21.168 9.99977 21.168C11.0142 21.168 11.9405 20.7903 12.6456 20.168M15.9998 7.16797C15.9998 5.57667 15.3676 4.05055 14.2424 2.92533C13.1172 1.80011 11.5911 1.16797 9.99977 1.16797C8.40848 1.16797 6.88235 1.80011 5.75713 2.92533C4.63192 4.05055 3.99977 5.57667 3.99977 7.16797C3.99977 10.2582 3.22024 12.3739 2.34944 13.7734C1.6149 14.9538 1.24763 15.5441 1.2611 15.7087C1.27601 15.891 1.31463 15.9606 1.46155 16.0695C1.59423 16.168 2.19237 16.168 3.38863 16.168H16.6109C17.8072 16.168 18.4053 16.168 18.538 16.0695C18.6849 15.9606 18.7235 15.891 18.7384 15.7087C18.7519 15.5441 18.3846 14.9538 17.6501 13.7734C16.7793 12.3739 15.9998 10.2582 15.9998 7.16797Z" stroke="#313C49" stroke-width="2" stroke-linecap="round" stroke-linejoin="round"/>
</svg>
