<svg width="20" height="20" viewBox="0 0 20 20" fill="none" xmlns="http://www.w3.org/2000/svg">
<path d="M4.1665 10.834H6.6665M1.6665 7.50065L3.33317 8.33398L4.39204 5.15738C4.6106 4.50169 4.71988 4.17385 4.92258 3.93147C5.10157 3.71743 5.33143 3.55175 5.59109 3.44963C5.88514 3.33398 6.23071 3.33398 6.92186 3.33398H13.0778C13.769 3.33398 14.1145 3.33398 14.4086 3.44963C14.6682 3.55175 14.8981 3.71743 15.0771 3.93147C15.2798 4.17385 15.3891 4.50169 15.6076 5.15738L16.6665 8.33398L18.3332 7.50065M13.3332 10.834H15.8332M5.6665 8.33398H14.3332C15.7333 8.33398 16.4334 8.33398 16.9681 8.60647C17.4386 8.84615 17.821 9.2286 18.0607 9.69901C18.3332 10.2338 18.3332 10.9339 18.3332 12.334V14.584C18.3332 14.9712 18.3332 15.1648 18.3011 15.3258C18.1696 15.987 17.6528 16.5038 16.9917 16.6353C16.8307 16.6673 16.6371 16.6673 16.2498 16.6673H15.8332C14.9127 16.6673 14.1665 15.9211 14.1665 15.0007C14.1665 14.7705 13.98 14.584 13.7498 14.584H6.24984C6.01972 14.584 5.83317 14.7705 5.83317 15.0007C5.83317 15.9211 5.08698 16.6673 4.1665 16.6673H3.74984C3.36262 16.6673 3.16902 16.6673 3.00802 16.6353C2.34687 16.5038 1.83004 15.987 1.69853 15.3258C1.6665 15.1648 1.6665 14.9712 1.6665 14.584V12.334C1.6665 10.9339 1.6665 10.2338 1.93899 9.69901C2.17867 9.2286 2.56112 8.84615 3.03153 8.60647C3.56631 8.33398 4.26637 8.33398 5.6665 8.33398Z" stroke="#313C49" stroke-width="1.5" stroke-linecap="round" stroke-linejoin="round"/>
</svg>
