<svg width="111" height="120" viewBox="0 0 111 120" fill="none" xmlns="http://www.w3.org/2000/svg">
<path d="M59.8841 19.5986L58.9141 19.5117L58.2668 26.7393L59.2368 26.8262L59.8841 19.5986Z" fill="#E0E0E0"/>
<path d="M61.5109 20.482L56.9567 20.074C56.0558 19.9934 55.3906 19.1974 55.4715 18.2965C55.5521 17.3956 56.3481 16.7307 57.249 16.8113L61.8032 17.2193C62.7041 17.3002 63.3693 18.0958 63.2884 18.9968C63.2078 19.898 62.4118 20.5629 61.5109 20.482Z" fill="#E0E0E0"/>
<path d="M61.7809 20.5301C61.7768 20.5753 60.6316 20.5099 59.2232 20.3835C57.8141 20.2571 56.6759 20.1184 56.6797 20.0729C56.6838 20.0277 57.8287 20.0931 59.2377 20.2195C60.6461 20.3456 61.785 20.4846 61.7809 20.5301Z" fill="#263238"/>
<path d="M80.2507 5.534C82.4222 6.78346 83.6186 7.47171 85.0106 9.56774C85.8856 10.8851 85.9099 13.3664 85.9352 15.9933C85.9523 17.7487 85.9699 19.5638 86.2575 20.8075C86.8279 23.2749 89.1663 23.7451 89.2655 23.7637L88.9309 25.63C88.928 25.6294 88.9245 25.6288 88.9198 25.6278C88.6585 25.5791 85.2523 24.8783 84.4102 21.2348C84.0762 19.7888 84.0572 17.8687 84.0395 16.0116C84.019 13.8811 83.9953 11.466 83.4312 10.6165C82.286 8.89245 81.4135 8.39032 79.3052 7.17752C79.3052 7.17752 75.9884 5.1567 67.4596 3.50338C58.9308 1.84975 52.8136 2.26024 52.8136 2.26024C50.4105 2.63565 49.4157 2.79112 47.7283 3.98939C46.8969 4.57968 46.0083 6.82518 45.2246 8.80618C44.5414 10.5334 43.8348 12.3192 43.0041 13.5487C40.8723 16.703 37.365 16.0549 37.207 16.0287L37.5704 14.1678L37.3887 15.0984L37.5644 14.1668C37.664 14.1848 40.0153 14.5852 41.4332 12.4869C42.148 11.4293 42.816 9.74122 43.4619 8.10877C44.4286 5.6664 45.3415 3.35929 46.6311 2.44352C48.6823 0.986757 50.0461 0.773774 52.5217 0.386674C52.5217 0.386674 58.3076 -0.206143 67.5579 1.72304C76.8078 3.65222 80.2507 5.534 80.2507 5.534Z" fill="#E0E0E0"/>
<path d="M80.2504 5.53572C80.2504 5.53572 80.1762 5.50064 80.0302 5.4327C79.8842 5.36508 79.6661 5.26427 79.3745 5.14293C78.7924 4.8974 77.9199 4.55801 76.7672 4.17344C74.4632 3.40208 71.0349 2.45693 66.6463 1.59456C64.4514 1.17302 62.0119 0.783078 59.3474 0.564406C58.016 0.451278 56.6291 0.37607 55.1932 0.367222C54.4756 0.363114 53.745 0.372277 53.0052 0.417465C52.8213 0.430737 52.6327 0.436426 52.4529 0.46455C52.2686 0.493938 52.0835 0.523325 51.8977 0.553029C51.5254 0.612437 51.1513 0.676586 50.7765 0.749582C50.0282 0.89747 49.2752 1.08991 48.5597 1.40907C47.8453 1.72318 47.1548 2.13809 46.519 2.62188C45.9085 3.13254 45.4645 3.83785 45.0796 4.56496C44.6916 5.29524 44.3642 6.07007 44.0413 6.85628C43.3935 8.42806 42.8196 10.0788 42.0018 11.6705C41.7894 12.064 41.573 12.4602 41.281 12.8157C40.9931 13.17 40.6481 13.485 40.2502 13.7233C39.4517 14.1992 38.4873 14.3742 37.55 14.2456L37.6401 14.1837C37.586 14.4706 37.5253 14.7926 37.4647 15.1153L37.3114 15.0859C37.3673 14.7989 37.4299 14.4776 37.4928 14.1552L37.6464 14.1853C37.5339 14.7623 37.4091 15.4025 37.2836 16.0462L37.2191 15.9533C38.8292 16.1972 40.6133 15.7984 41.8975 14.6722C42.5406 14.1164 43.0455 13.4079 43.4551 12.6407C43.869 11.8747 44.2208 11.0667 44.5592 10.2473C45.2421 8.6104 45.8248 6.89957 46.6739 5.27281C46.8932 4.87085 47.1257 4.46795 47.455 4.12478C47.6234 3.94877 47.825 3.8271 48.0128 3.69691C48.2058 3.56988 48.403 3.44759 48.6053 3.33288C49.4139 2.86678 50.329 2.60134 51.2442 2.4386C51.7687 2.34127 52.2933 2.26101 52.8008 2.18138L52.8052 2.18075H52.808C55.2337 2.07015 57.627 2.18106 59.9784 2.37793C62.3298 2.57922 64.6359 2.90438 66.8852 3.31929C69.1336 3.73926 71.3304 4.2338 73.4485 4.85284C74.5081 5.15904 75.549 5.49432 76.5618 5.87415C77.5717 6.25904 78.5665 6.6632 79.4876 7.19788C80.3948 7.72939 81.3242 8.23246 82.1054 8.92797C82.4959 9.27336 82.8382 9.66552 83.1409 10.0785C83.2916 10.289 83.4423 10.484 83.571 10.7187C83.6885 10.9545 83.7631 11.2019 83.8187 11.45C84.0292 12.4457 84.0548 13.4423 84.0864 14.4188C84.0993 15.3952 84.1123 16.3574 84.1249 17.3048C84.1432 18.2506 84.1758 19.1825 84.2832 20.0894C84.3881 20.9951 84.5957 21.8777 85.0069 22.6531C85.8161 24.2208 87.3731 25.2285 88.9414 25.5739L88.8712 25.6223C88.9916 24.9552 89.1006 24.3507 89.2078 23.7563L89.2542 23.8236C88.4036 23.6267 87.648 23.1726 87.0931 22.5602C86.529 21.9472 86.2453 21.155 86.1214 20.3943C85.8835 18.8602 85.9109 17.3987 85.8888 16.0402C85.8771 14.6808 85.8702 13.4142 85.7469 12.258C85.624 11.1093 85.3753 10.0406 84.7746 9.28506C84.2298 8.50043 83.6512 7.87159 83.0853 7.40264C82.5222 6.92928 81.9932 6.5959 81.5666 6.32919C81.1384 6.06407 80.8056 5.87131 80.5838 5.73922C80.3623 5.60682 80.2504 5.53572 80.2504 5.53572C80.2504 5.53572 80.7191 5.78251 81.5849 6.29981C82.0147 6.5624 82.5481 6.89199 83.1175 7.36409C83.6901 7.83177 84.2766 8.46156 84.828 9.24745C85.4401 10.009 85.6989 11.0973 85.8259 12.2485C85.9546 13.4101 85.9656 14.6792 85.9817 16.0383C86.0076 17.3955 85.9855 18.858 86.2254 20.3754C86.3505 21.1272 86.6273 21.89 87.1762 22.485C87.7131 23.0775 88.4585 23.5212 89.2763 23.7079L89.3326 23.7209L89.3228 23.7755C89.2169 24.3703 89.1092 24.9748 88.99 25.6422L88.979 25.7035L88.9196 25.6908C88.1075 25.517 87.3212 25.1713 86.6178 24.673C85.9078 24.1838 85.3118 23.5025 84.8918 22.7125C84.4694 21.92 84.2567 21.0162 84.1496 20.1046C84.0396 19.1894 84.0058 18.2544 83.9859 17.3064C83.972 16.3593 83.9577 15.3974 83.9435 14.4213C83.911 13.4493 83.8829 12.4533 83.6759 11.4816C83.6218 11.2401 83.5485 11.0022 83.4401 10.7861C83.3267 10.5772 83.1674 10.3677 83.0218 10.1657C82.7225 9.75905 82.3875 9.37606 82.0055 9.03889C81.2424 8.35981 80.3203 7.86053 79.4102 7.3287C78.5039 6.80351 77.512 6.40061 76.5071 6.01888C75.4987 5.64158 74.4613 5.3082 73.4043 5.00357C71.2921 4.38769 69.0994 3.89568 66.8555 3.47761C64.611 3.0646 62.3095 2.7407 59.9639 2.54067C57.6198 2.34475 55.2261 2.2351 52.8188 2.34475L52.8261 2.34412C52.3189 2.42375 51.795 2.50401 51.2745 2.60071C50.3644 2.76313 49.4774 3.02099 48.6858 3.47666C48.4877 3.58884 48.294 3.70892 48.1038 3.83406C47.9151 3.96457 47.7204 4.08338 47.5722 4.24012C47.2654 4.55896 47.0335 4.95522 46.8186 5.35086C45.9793 6.9574 45.3944 8.66949 44.7099 10.3095C44.3702 11.1314 44.0166 11.9436 43.5976 12.7181C43.1843 13.4923 42.6648 14.2229 42.0027 14.7942C40.6762 15.9542 38.8481 16.3612 37.1939 16.1094L37.1133 16.0971L37.1291 16.0162C37.2549 15.3725 37.38 14.7323 37.4928 14.1552L37.6467 14.1853C37.5838 14.5076 37.5209 14.8283 37.4647 15.1153L37.3117 15.0862C37.3727 14.7635 37.4337 14.4419 37.4877 14.1546L37.5013 14.0819L37.5778 14.0924C38.4673 14.2153 39.41 14.0475 40.1718 13.5915C40.5536 13.363 40.8847 13.0613 41.1625 12.72C41.4428 12.3803 41.6589 11.9875 41.8684 11.5998C42.6796 10.0248 43.2563 8.37466 43.907 6.80066C44.2318 6.01319 44.5614 5.23552 44.9542 4.49766C45.3448 3.76391 45.7938 3.04659 46.4315 2.51381C47.0847 2.01801 47.7764 1.60468 48.5054 1.28457C49.2331 0.961618 49.9975 0.767593 50.7506 0.620021C51.1279 0.547341 51.5036 0.48351 51.8765 0.424734C52.0636 0.395346 52.2497 0.365958 52.4352 0.336886C52.6254 0.30813 52.8106 0.303073 52.997 0.290117C53.7409 0.246193 54.4734 0.238295 55.1932 0.243667C56.6332 0.255359 58.0227 0.333411 59.3565 0.449699C62.0255 0.674691 64.4675 1.07159 66.664 1.50008C71.0545 2.37635 74.4815 3.33699 76.783 4.12446C77.9345 4.51693 78.805 4.86453 79.3843 5.11828C79.6747 5.24373 79.8908 5.34864 80.0352 5.42038C80.1803 5.49274 80.2504 5.53572 80.2504 5.53572Z" fill="#263238"/>
<path d="M33.7251 11.5529C31.8193 12.2052 30.8031 14.2788 31.4553 16.1846L38.3567 13.8228C37.7048 11.917 35.6309 10.9007 33.7251 11.5529Z" fill="#E0E0E0"/>
<path d="M55.0038 19.9C54.7801 19.2465 47.3762 21.1886 38.4669 24.2374C29.5573 27.2865 22.5161 30.2878 22.7395 30.9413C22.9633 31.5948 30.3672 29.6527 39.2765 26.6039C48.1861 23.5548 55.2275 20.5535 55.0038 19.9Z" fill="#FF725E"/>
<path d="M38.677 24.1587L22.737 30.9353C22.737 30.9353 19.2487 20.0766 34.7959 14.4727" fill="#FF725E"/>
<path d="M55.0032 19.9007C55.0032 19.9007 51.7307 9.35384 37.098 13.6025C36.6619 13.7292 34.7969 14.474 34.7969 14.474L38.2707 24.2864L55.0032 19.9007Z" fill="#FF725E"/>
<g opacity="0.3">
<path d="M55.0038 19.9C54.7801 19.2465 47.3762 21.1886 38.4669 24.2374C29.5573 27.2865 22.5161 30.2878 22.7395 30.9413C22.9633 31.5948 30.3672 29.6527 39.2765 26.6039C48.1861 23.5548 55.2275 20.5535 55.0038 19.9Z" fill="black"/>
</g>
<path d="M40.0641 12.8855C40.0694 12.9209 39.4384 13.0264 38.436 13.2682C37.4334 13.5071 36.0641 13.9037 34.5979 14.4712C33.1323 15.0416 31.8537 15.6726 30.9525 16.1725C30.0497 16.6702 29.5128 17.0178 29.4926 16.9881C29.4841 16.9755 29.6098 16.876 29.8452 16.7066C30.0794 16.5353 30.4305 16.3049 30.8751 16.0379C31.7621 15.5004 33.0413 14.8415 34.5186 14.2667C35.9962 13.6948 37.385 13.3184 38.4022 13.1168C38.9107 13.0141 39.3252 12.9471 39.6138 12.9155C39.9019 12.8817 40.0618 12.8703 40.0641 12.8855Z" fill="#263238"/>
<path d="M40.4595 23.3477L36.5547 24.8765C36.6498 25.3116 38.9146 31.5289 38.9146 31.5289L42.5688 29.9985L40.4595 23.3477Z" fill="#E0E0E0"/>
<path d="M46.1685 21.6152C46.1708 21.6225 46.1066 21.65 45.9821 21.6961C45.833 21.7482 45.6528 21.8114 45.4354 21.8873C44.9257 22.0576 44.2441 22.2854 43.4168 22.5619C41.712 23.1295 39.3606 23.9242 36.7783 24.8438C34.1953 25.7643 31.8708 26.6355 30.191 27.2735C29.3754 27.5822 28.7032 27.8366 28.2005 28.0268C27.9843 28.1052 27.8048 28.1703 27.6563 28.2243C27.5309 28.2673 27.4639 28.2863 27.461 28.2793C27.4582 28.2724 27.5198 28.2395 27.6399 28.1833C27.7843 28.1188 27.9587 28.0411 28.1689 27.9475C28.6299 27.7465 29.3014 27.4662 30.1347 27.1288C31.8013 26.4532 34.1195 25.5582 36.705 24.6368C39.2899 23.7166 41.6516 22.9443 43.3697 22.414C44.2289 22.1486 44.9264 21.9413 45.4105 21.8054C45.6326 21.7451 45.8168 21.6951 45.9695 21.6537C46.0978 21.6215 46.1663 21.6079 46.1685 21.6152Z" fill="#263238"/>
<g opacity="0.3">
<path d="M35.0209 15.0352C32.3479 16.5175 29.6344 18.0308 27.4945 20.2128C25.3542 22.3951 23.8301 25.381 24.1066 28.425L34.6351 24.3015C33.5263 21.3267 33.6688 17.9076 35.0209 15.0352Z" fill="white"/>
</g>
<path d="M29.3073 18.8961C29.3291 18.935 28.7439 19.2336 27.9264 19.8896C27.515 20.2139 27.0631 20.6455 26.6027 21.1606C26.1527 21.6848 25.7008 22.2979 25.3039 22.9899C24.9156 23.687 24.6236 24.3908 24.4065 25.0468C24.203 25.7069 24.0662 26.3168 24.0007 26.8366C23.8604 27.8753 23.9063 28.5307 23.862 28.5319C23.8469 28.5329 23.8295 28.3705 23.8108 28.074C23.7988 27.9258 23.7909 27.7441 23.8026 27.5337C23.8115 27.3229 23.8083 27.0815 23.8465 26.8179C23.8933 26.2877 24.0162 25.6633 24.2134 24.9867C24.4239 24.3146 24.7165 23.5935 25.1128 22.8819C25.5175 22.1756 25.9846 21.5531 26.4516 21.026C26.9294 20.5084 27.4009 20.0808 27.831 19.767C28.037 19.5986 28.2456 19.4766 28.4216 19.3603C28.5963 19.2418 28.7556 19.1546 28.889 19.0886C29.1522 18.9518 29.3004 18.8829 29.3073 18.8961Z" fill="white"/>
<path d="M33.5489 12.784C33.5856 12.8367 33.2124 13.1357 32.8787 13.6059C32.5393 14.072 32.375 14.521 32.3133 14.5033C32.2571 14.4935 32.3351 13.9825 32.7004 13.4779C33.0619 12.9704 33.5217 12.7337 33.5489 12.784Z" fill="white"/>
<path d="M95.4429 24.2301C94.0108 22.8134 91.7015 22.8261 90.2852 24.2582L95.471 29.3881C96.8877 27.956 96.875 25.6467 95.4429 24.2301Z" fill="#E0E0E0"/>
<path d="M97.4328 46.9994C97.9185 46.5083 92.8849 40.742 86.1901 34.1196C79.4954 27.4971 73.6743 22.5268 73.1886 23.0178C72.7029 23.5089 77.7365 29.2753 84.4313 35.8977C91.1261 42.5201 96.9471 47.4905 97.4328 46.9994Z" fill="#FF725E"/>
<path d="M86.3528 34.2743L73.1914 23.0146C73.1914 23.0146 81.3638 15.059 93.3001 26.489" fill="#FF725E"/>
<path d="M97.4311 46.9986C97.4311 46.9986 105.421 39.3751 95.1047 28.1612C94.7972 27.8272 93.3004 26.4883 93.3004 26.4883L86.0586 33.9652L97.4311 46.9986Z" fill="#FF725E"/>
<g opacity="0.3">
<path d="M97.4328 46.9994C97.9185 46.5083 92.8849 40.742 86.1901 34.1196C79.4954 27.4971 73.6743 22.5268 73.1886 23.0178C72.7029 23.5089 77.7365 29.2753 84.4313 35.8977C91.1261 42.5201 96.9471 47.4905 97.4328 46.9994Z" fill="black"/>
</g>
<path d="M97.069 30.4986C97.0396 30.5192 96.6645 30.0009 96.0022 29.2109C95.342 28.4193 94.3776 27.3696 93.2173 26.3091C92.0544 25.2505 90.9203 24.3862 90.0718 23.8013C89.2246 23.2142 88.6741 22.8881 88.6918 22.8571C88.6991 22.8438 88.8441 22.9121 89.1007 23.0473C89.3583 23.1807 89.7207 23.393 90.1577 23.6721C91.034 24.2273 92.1931 25.0795 93.3651 26.1467C94.535 27.2157 95.4896 28.2917 96.1229 29.1133C96.4411 29.5228 96.6857 29.8644 96.8421 30.1087C97.0001 30.3517 97.0816 30.4898 97.069 30.4986Z" fill="#263238"/>
<path d="M87.8774 35.5082L84.7708 32.6914C84.4235 32.9701 79.8633 37.7648 79.8633 37.7648L82.8599 40.3563L87.8774 35.5082Z" fill="#E0E0E0"/>
<path d="M91.9682 39.8511C91.9628 39.8561 91.9094 39.8109 91.8127 39.7202C91.6996 39.6099 91.5631 39.4766 91.3984 39.3157C91.0189 38.935 90.5118 38.4259 89.8959 37.8081C88.629 36.5337 86.8711 34.7818 84.8986 32.8782C82.9249 30.9746 81.1108 29.2805 79.7918 28.0601C79.1522 27.467 78.6254 26.9782 78.2314 26.6129C78.0648 26.4542 77.9267 26.3225 77.8123 26.2134C77.7182 26.1202 77.6711 26.0687 77.6761 26.063C77.6812 26.0573 77.7381 26.0978 77.8417 26.1803C77.9637 26.2808 78.111 26.4027 78.2882 26.549C78.6734 26.8723 79.223 27.3491 79.896 27.9451C81.2425 29.1371 83.0753 30.8147 85.0513 32.7202C87.0256 34.6257 88.7681 36.3972 90.0074 37.7C90.6274 38.3513 91.1235 38.8835 91.4604 39.257C91.6133 39.4292 91.74 39.572 91.845 39.6899C91.9312 39.7904 91.9739 39.8457 91.9682 39.8511Z" fill="#263238"/>
<g opacity="0.3">
<path d="M92.8986 26.9385C90.3817 25.2043 87.8193 23.4474 84.9127 22.5019C82.0061 21.5561 78.654 21.5198 76.0508 23.1219L84.4279 30.716C86.5992 28.3991 89.7244 27.0055 92.8986 26.9385Z" fill="white"/>
</g>
<path d="M86.9001 23.5413C86.8751 23.5779 86.3471 23.1867 85.3959 22.7466C84.9225 22.5225 84.3348 22.3098 83.669 22.1266C82.9994 21.9572 82.2492 21.8251 81.4528 21.7774C80.6559 21.7401 79.8956 21.7916 79.2115 21.8889C78.5295 22.0005 77.9225 22.1493 77.428 22.3218C76.4354 22.6584 75.8688 22.9911 75.848 22.952C75.8404 22.9387 75.9781 22.8508 76.2354 22.7026C76.3627 22.6262 76.522 22.5383 76.7157 22.4549C76.9081 22.3692 77.1233 22.259 77.3761 22.1759C77.8716 21.9818 78.4859 21.814 79.1792 21.6895C79.8747 21.5789 80.6508 21.5202 81.4645 21.5587C82.2773 21.6071 83.0423 21.748 83.7224 21.9319C84.3986 22.1294 84.9914 22.3617 85.4635 22.6072C85.7062 22.7165 85.9081 22.8492 86.0905 22.9551C86.2744 23.0588 86.4232 23.163 86.5417 23.2525C86.7816 23.4269 86.9092 23.529 86.9001 23.5413Z" fill="white"/>
<path d="M94.2617 24.6219C94.2307 24.6782 93.7968 24.4769 93.2274 24.3875C92.6589 24.2911 92.1836 24.3439 92.1723 24.2804C92.1561 24.2257 92.6485 24.068 93.2628 24.1707C93.878 24.269 94.2945 24.5752 94.2617 24.6219Z" fill="white"/>
<path d="M66.1133 100.044L71.1393 107.639C71.6717 108.443 72.7148 108.734 73.5867 108.321C74.5145 107.88 74.9382 106.793 74.5527 105.841L71.0125 97.1016L66.1133 100.044Z" fill="#E0E0E0"/>
<path d="M66.1136 100.045C66.1105 100.044 66.137 100.025 66.1917 99.9899C66.2565 99.9488 66.3377 99.8973 66.4391 99.8332C66.6723 99.6884 66.9962 99.4878 67.4054 99.2337C68.2675 98.7063 69.4888 97.959 70.9794 97.047L71.0438 97.0078L71.0726 97.0783C72.0231 99.4119 73.2413 102.403 74.566 105.655C74.7926 106.129 74.8457 106.706 74.6734 107.202C74.5104 107.701 74.1479 108.121 73.6967 108.354C73.2476 108.593 72.7177 108.646 72.2465 108.52C71.7735 108.398 71.3621 108.1 71.1007 107.715C70.1148 106.211 69.2262 104.855 68.477 103.712C67.7458 102.586 67.1514 101.669 66.7314 101.022C66.5348 100.715 66.3791 100.473 66.2653 100.295C66.2179 100.22 66.1797 100.158 66.1481 100.108C66.1228 100.065 66.1111 100.044 66.1136 100.045C66.1165 100.045 66.1335 100.068 66.1645 100.111C66.2002 100.162 66.2441 100.225 66.2978 100.301C66.4192 100.479 66.5851 100.722 66.7949 101.03C67.2272 101.67 67.839 102.577 68.5917 103.693C69.3438 104.816 70.2358 106.149 71.2256 107.628C71.4686 107.983 71.8493 108.256 72.2864 108.368C72.7215 108.482 73.2088 108.432 73.6215 108.211C74.0361 107.996 74.3682 107.61 74.5176 107.15C74.6731 106.688 74.6317 106.177 74.4134 105.716C73.1013 102.459 71.8945 99.4638 70.9528 97.1263L71.0457 97.1573C69.5552 98.0358 68.3335 98.7559 67.4715 99.264C67.0496 99.5096 66.7159 99.7033 66.4758 99.8433C66.3674 99.9049 66.2798 99.9548 66.2106 99.9943C66.1496 100.028 66.1168 100.045 66.1136 100.045Z" fill="#263238"/>
<path d="M24.572 88.3438L18.5902 95.2107C17.9563 95.9382 17.9541 97.0211 18.5851 97.7514C19.2563 98.5284 20.4173 98.6472 21.2319 98.0222L28.7132 92.2824L24.572 88.3438Z" fill="#E0E0E0"/>
<path d="M24.5719 88.3441C24.5719 88.3409 24.5969 88.3614 24.6455 88.4047C24.7024 88.4562 24.7738 88.521 24.8626 88.6013C25.0642 88.7877 25.3439 89.0462 25.6978 89.373C26.436 90.0634 27.4813 91.0414 28.7573 92.2356L28.8123 92.2871L28.7519 92.3336C26.7558 93.8712 24.1974 95.8418 21.4154 97.9849C21.0194 98.3294 20.4768 98.5344 19.9529 98.5003C19.428 98.4763 18.9269 98.2387 18.5818 97.8658C18.232 97.4967 18.0399 96.9999 18.0354 96.5124C18.0272 96.0238 18.2051 95.5476 18.5066 95.1937C19.6938 93.8428 20.7635 92.6252 21.6656 91.5989C22.5571 90.594 23.2817 89.7771 23.7936 89.2001C24.0369 88.9287 24.2293 88.7141 24.37 88.5574C24.4303 88.4916 24.4796 88.4382 24.5197 88.3943C24.5545 88.358 24.5719 88.3412 24.5719 88.3441C24.5719 88.3469 24.5548 88.3693 24.5216 88.4107C24.4818 88.4588 24.4332 88.5179 24.3734 88.5899C24.2344 88.7542 24.0442 88.9789 23.8037 89.263C23.3013 89.8501 22.5903 90.6815 21.7156 91.7041C20.8327 92.7282 19.7854 93.943 18.6238 95.2907C18.3461 95.6197 18.1846 96.0592 18.1934 96.5101C18.1991 96.9601 18.3773 97.4161 18.7003 97.7555C19.0185 98.0977 19.4792 98.3151 19.9618 98.3369C20.4484 98.3638 20.9297 98.1878 21.3158 97.8547C24.1061 95.7223 26.672 93.7616 28.6742 92.2315L28.6691 92.3295C27.4251 91.1264 26.406 90.1408 25.6864 89.4453C25.3376 89.104 25.0617 88.8342 24.8629 88.6395C24.7744 88.5514 24.7033 88.4806 24.6468 88.4243C24.5975 88.3744 24.5722 88.3472 24.5719 88.3441Z" fill="#263238"/>
<path d="M82.7084 92.3468C97.9238 77.1314 97.9238 52.4623 82.7084 37.2469C67.493 22.0315 42.8239 22.0315 27.6085 37.247C12.3931 52.4624 12.3931 77.1314 27.6085 92.3468C42.8239 107.562 67.493 107.562 82.7084 92.3468Z" fill="#FF725E"/>
<path d="M93.4654 71.9066C93.4654 71.9066 93.4935 71.6943 93.5567 71.2813C93.5886 71.0743 93.6281 70.8174 93.6752 70.5121C93.7242 70.2066 93.7814 69.852 93.8168 69.4456C93.8594 69.0402 93.9071 68.587 93.9596 68.0868C94.0007 67.5856 94.0209 67.0358 94.0566 66.4411C94.1084 65.251 94.1021 63.8752 94.0139 62.3302C93.8964 60.7888 93.7245 59.0729 93.3371 57.2294C92.9642 55.3858 92.4516 53.3985 91.6736 51.3423C90.1461 47.2311 87.6879 42.7692 83.9708 38.6631C82.1226 36.6075 79.9472 34.6667 77.4739 32.9378C75.0018 31.2109 72.2346 29.6783 69.1934 28.5274C66.1604 27.3642 62.8781 26.5186 59.4337 26.153C57.715 25.9381 55.9549 25.897 54.1761 25.9179C52.3961 25.9659 50.5974 26.1397 48.7931 26.4263C46.995 26.7461 45.1878 27.1557 43.4053 27.7273C41.6278 28.3094 39.8601 28.9954 38.1413 29.8357C36.4274 30.6844 34.7529 31.6555 33.1372 32.7508C31.5357 33.8662 29.9974 35.1037 28.5422 36.4574C27.082 37.8074 25.744 39.31 24.4936 40.8966C24.1912 41.3014 23.8622 41.6879 23.5794 42.1097C23.2897 42.5262 22.9993 42.9433 22.7082 43.3614C22.1663 44.2241 21.612 45.0842 21.1292 45.9905C20.1464 47.7908 19.2613 49.6681 18.5753 51.6343C17.881 53.5966 17.3318 55.6235 16.933 57.6939C16.562 59.77 16.3462 61.8597 16.2893 63.9412C16.2245 66.0237 16.3756 68.0941 16.6467 70.1275C16.7722 71.1473 16.9807 72.1493 17.1763 73.1495C17.298 73.6443 17.4193 74.1382 17.5404 74.6309C17.6522 75.1264 17.821 75.6051 17.9581 76.0917C18.5557 78.0219 19.2648 79.9052 20.1439 81.6897C21.0164 83.4763 22.0076 85.1837 23.1026 86.8C24.2174 88.4028 25.4321 89.9104 26.7274 91.3179C28.0306 92.7193 29.4343 93.9944 30.8847 95.1759C32.3437 96.3492 33.8836 97.3806 35.4471 98.3242C37.0287 99.2394 38.6454 100.047 40.2898 100.731C41.9428 101.389 43.6009 101.983 45.2823 102.399C48.6291 103.294 51.9964 103.682 55.2448 103.685C58.4968 103.702 61.6299 103.264 64.5571 102.539C67.4861 101.813 70.2128 100.782 72.6757 99.5263C77.6186 97.0274 81.5136 93.7444 84.4145 90.4555C85.8782 88.8155 87.0698 87.1445 88.0791 85.5578C89.1023 83.9766 89.8784 82.4367 90.5411 81.04C91.1778 79.63 91.6774 78.348 92.056 77.2186C92.2358 76.6507 92.4144 76.1303 92.5559 75.6481C92.6864 75.1627 92.8046 74.7225 92.9102 74.3288C93.023 73.9369 93.0969 73.5855 93.1607 73.2828C93.2265 72.981 93.2814 72.7273 93.326 72.5225C93.4154 72.1149 93.4654 71.9066 93.4654 71.9066C93.4654 71.9066 93.4265 72.1171 93.3428 72.5263C93.3004 72.7317 93.248 72.9861 93.1854 73.2888C93.1241 73.5925 93.053 73.9448 92.9424 74.3376C92.8387 74.7323 92.7231 75.1734 92.5954 75.6601C92.4564 76.1436 92.2801 76.6656 92.1025 77.2347C91.7283 78.3672 91.2328 79.6527 90.5996 81.0671C89.9404 82.4683 89.1668 84.0129 88.1455 85.6002C87.1381 87.1925 85.9474 88.8701 84.4834 90.5168C81.5822 93.8193 77.6821 97.1174 72.7279 99.6306C70.2593 100.893 67.5252 101.931 64.5874 102.663C61.6514 103.393 58.5082 103.836 55.2445 103.822C51.9847 103.822 48.6047 103.435 45.245 102.539C43.557 102.123 41.8923 101.528 40.2326 100.869C38.5815 100.184 36.9579 99.3737 35.3697 98.4557C33.7992 97.5093 32.2527 96.4747 30.7874 95.2973C29.3306 94.1119 27.9206 92.8325 26.6118 91.4256C25.3108 90.0131 24.0904 88.4995 22.9705 86.8907C21.8705 85.2684 20.8745 83.5541 19.9979 81.7601C19.115 79.9687 18.4024 78.0778 17.8017 76.1394C17.6639 75.6509 17.4945 75.17 17.382 74.6726C17.2604 74.1777 17.1384 73.6816 17.0161 73.1848C16.8192 72.1806 16.6097 71.1745 16.4837 70.1503C16.2113 68.108 16.0593 66.0287 16.1244 63.9377C16.1812 61.8474 16.398 59.7492 16.7706 57.6642C17.1709 55.5852 17.7227 53.5499 18.4201 51.5793C19.1096 49.6046 19.9985 47.7197 20.9854 45.9118C21.4708 45.0018 22.0272 44.1381 22.5717 43.2717C22.864 42.852 23.1557 42.433 23.447 42.0146C23.7311 41.5912 24.0613 41.2028 24.365 40.7967C25.6211 39.2038 26.9651 37.6955 28.4316 36.3402C29.8934 34.9811 31.438 33.7392 33.0465 32.6196C34.6691 31.5203 36.3509 30.546 38.0718 29.6947C39.7978 28.8516 41.5731 28.1637 43.3579 27.5804C45.1477 27.0075 46.9622 26.597 48.7675 26.2772C50.5791 25.9906 52.3847 25.8171 54.1717 25.77C55.9574 25.7501 57.7242 25.7928 59.4492 26.0095C62.9063 26.3793 66.1993 27.2306 69.2421 28.4007C72.293 29.5585 75.0685 31.099 77.5465 32.8345C80.0259 34.5719 82.2057 36.5213 84.0568 38.5854C87.7793 42.7089 90.2365 47.1869 91.7596 51.3107C92.5351 53.3732 93.0445 55.3662 93.4135 57.2145C93.7975 59.0625 93.965 60.7822 94.0775 62.3265C94.1609 63.8742 94.1621 65.252 94.1049 66.4436C94.0667 67.039 94.0436 67.5891 94 68.0906C93.9444 68.5908 93.8942 69.0443 93.849 69.4497C93.8111 69.8561 93.7513 70.2103 93.6995 70.5159C93.6493 70.8209 93.6069 71.0774 93.5728 71.2841C93.5049 71.6962 93.4654 71.9066 93.4654 71.9066Z" fill="#263238"/>
<path d="M54.9241 100.379C74.6285 100.379 90.6021 84.4058 90.6021 64.7014C90.6021 44.997 74.6285 29.0234 54.9241 29.0234C35.2197 29.0234 19.2461 44.997 19.2461 64.7014C19.2461 84.4058 35.2197 100.379 54.9241 100.379Z" fill="white"/>
<g opacity="0.3">
<path d="M20.2231 61.0893C23.8192 41.716 42.4398 28.9259 61.8135 32.522C76.5865 35.2642 87.5296 46.7429 90.3003 60.6296C88.5901 45.4357 77.1648 32.4901 61.3515 29.5548C41.9779 25.9587 23.3572 38.7485 19.7612 58.1221C18.907 62.7228 18.9787 67.2804 19.8417 71.6052C19.4568 68.1839 19.5624 64.6494 20.2231 61.0893Z" fill="black"/>
</g>
<path d="M60.2053 37.0826L59.2443 41.663L58.1845 41.4405L58.9669 37.7108L58.0508 37.5186L58.2293 36.668L60.2053 37.0826Z" fill="#263238"/>
<path d="M63.6464 41.685L63.4654 42.549L60.0039 41.8225L60.148 41.1355L62.2649 39.8377C62.4899 39.6983 62.6485 39.571 62.7411 39.456C62.8337 39.3412 62.8931 39.2202 62.9193 39.0938C62.9579 38.9105 62.9256 38.757 62.8217 38.6328C62.718 38.5083 62.5458 38.421 62.306 38.3708C62.1053 38.3288 61.9163 38.3288 61.7394 38.3714C61.5618 38.4141 61.4025 38.5001 61.2613 38.6299L60.5939 37.9704C60.8287 37.742 61.1191 37.5855 61.4641 37.5005C61.8102 37.4162 62.1856 37.4165 62.5913 37.5015C62.9317 37.5729 63.2176 37.6911 63.4496 37.856C63.6812 38.0207 63.8468 38.2194 63.946 38.452C64.0452 38.6846 64.0658 38.9383 64.0083 39.2129C63.9561 39.4616 63.8547 39.6841 63.7036 39.8803C63.5535 40.0766 63.2985 40.2826 62.9392 40.4984L61.6768 41.272L63.6464 41.685Z" fill="#263238"/>
<path d="M75.9311 43.6655L74.9407 48.2393L73.8821 48.0102L74.6886 44.2858L73.7734 44.0877L73.9573 43.2383L75.9311 43.6655Z" fill="#263238"/>
<path d="M81.9127 58.1764L81.7259 59.0388L78.2695 58.2902L78.4181 57.6041L80.5432 56.3199C80.7688 56.1818 80.9287 56.0557 81.0216 55.9413C81.1145 55.8269 81.1752 55.7065 81.2026 55.5801C81.2421 55.3972 81.2105 55.2436 81.1075 55.1185C81.0048 54.9937 80.8332 54.9052 80.5934 54.8534C80.3931 54.8097 80.2041 54.8088 80.0265 54.8502C79.8489 54.8913 79.689 54.9769 79.5468 55.1052L78.8835 54.4419C79.1193 54.215 79.4109 54.0602 79.7566 53.9777C80.103 53.8955 80.4787 53.8981 80.8838 53.9856C81.2238 54.0592 81.5088 54.179 81.7398 54.3455C81.9702 54.5117 82.1345 54.7115 82.2322 54.9447C82.3298 55.1779 82.3491 55.4316 82.2897 55.7059C82.236 55.9543 82.133 56.1758 81.9816 56.3711C81.8299 56.5664 81.5736 56.7708 81.2128 56.9845L79.9453 57.7498L81.9127 58.1764Z" fill="#263238"/>
<path d="M81.4234 69.8266C81.5865 70.1059 81.6307 70.4175 81.5564 70.7616C81.4986 71.0277 81.3763 71.2571 81.188 71.4515C81 71.6458 80.7487 71.7795 80.434 71.8525C80.1199 71.9261 79.7555 71.9179 79.3416 71.8281C79.0193 71.7586 78.7115 71.6471 78.4186 71.4951C78.1256 71.3424 77.8867 71.1645 77.7031 70.9601L78.2903 70.2393C78.4359 70.4077 78.6157 70.5527 78.8287 70.6741C79.0417 70.7958 79.2683 70.8823 79.5081 70.9342C79.7739 70.992 79.9938 70.986 80.1682 70.9165C80.3427 70.847 80.4504 70.719 80.4912 70.5313C80.5721 70.1568 80.3275 69.9075 79.7571 69.7839L79.2736 69.679L79.425 68.98L80.5967 68.1186L78.6499 67.6971L78.8338 66.8477L82.0349 67.541L81.8867 68.227L80.5993 69.1797C80.9861 69.3317 81.261 69.5476 81.4234 69.8266Z" fill="#263238"/>
<path d="M77.2212 82.3658L76.4764 82.2046L76.2684 83.1653L75.2358 82.9416L75.4437 81.9809L72.9805 81.4475L73.1347 80.7352L75.9186 78.3008L77.0294 78.5416L74.4344 80.8594L75.6627 81.1255L75.8479 80.2695L76.848 80.4862L76.6628 81.342L77.4073 81.5031L77.2212 82.3658Z" fill="#263238"/>
<path d="M66.0924 88.6539C66.3436 88.9775 66.4226 89.3551 66.3291 89.7862C66.2691 90.0652 66.1442 90.3035 65.9553 90.5022C65.7663 90.701 65.5141 90.8381 65.1994 90.9134C64.8843 90.9886 64.5178 90.9813 64.0994 90.8906C63.7771 90.8208 63.4693 90.7095 63.1767 90.5572C62.8831 90.4049 62.6448 90.2267 62.4609 90.0225L63.0547 89.3027C63.2004 89.4714 63.3792 89.6159 63.59 89.7366C63.8008 89.8579 64.0261 89.9439 64.2656 89.996C64.5314 90.0535 64.7513 90.0466 64.927 89.9748C65.1017 89.9031 65.2098 89.7742 65.2503 89.5865C65.2929 89.3905 65.2455 89.2253 65.1081 89.0903C64.9706 88.9557 64.7061 88.8461 64.314 88.7614L63.1448 88.508L63.9373 85.9844L66.7273 86.5886L66.5433 87.438L64.6353 87.0247L64.3753 87.8782L64.7478 87.9587C65.3925 88.0994 65.8409 88.3307 66.0924 88.6539Z" fill="#263238"/>
<path d="M50.8266 90.463C51.0408 90.6327 51.1941 90.84 51.287 91.0862C51.3799 91.332 51.3957 91.5962 51.3344 91.8793C51.2683 92.1846 51.134 92.4358 50.9315 92.6336C50.7289 92.8314 50.4827 92.9639 50.192 93.0312C49.9013 93.0982 49.5951 93.0969 49.2731 93.0271C48.6323 92.8883 48.1741 92.584 47.8972 92.1135C47.6204 91.643 47.561 91.0445 47.7187 90.317C47.8309 89.7988 48.0252 89.3757 48.3011 89.0477C48.5773 88.72 48.9116 88.4975 49.3038 88.3822C49.6959 88.2665 50.1231 88.2586 50.5848 88.3585C50.8291 88.4112 51.0572 88.4893 51.2696 88.5923C51.4823 88.6953 51.6561 88.8138 51.7913 88.9481L51.2307 89.6408C51.037 89.4395 50.7684 89.3011 50.4243 89.2265C50.0366 89.1425 49.7051 89.1895 49.4295 89.3668C49.1537 89.5441 48.9606 89.8465 48.85 90.2741C49.1786 90.0623 49.5847 90.0092 50.0682 90.1138C50.3598 90.1774 50.6126 90.2936 50.8266 90.463ZM49.9771 92.1603C50.1446 92.0693 50.2518 91.9192 50.2973 91.7096C50.3424 91.5008 50.3074 91.3187 50.193 91.1639C50.0783 91.0088 49.9032 90.9061 49.6681 90.8552C49.4371 90.8049 49.2339 90.8283 49.0579 90.925C48.8819 91.0211 48.7722 91.1699 48.729 91.3703C48.6853 91.5709 48.722 91.7495 48.8383 91.9068C48.9546 92.0645 49.1369 92.1701 49.3856 92.2241C49.6115 92.2731 49.8094 92.2519 49.9771 92.1603Z" fill="#263238"/>
<path d="M40.1424 81.7114L39.9939 82.3975L37.4533 85.9177L36.303 85.6687L38.747 82.3125L37.2311 81.9842L37.0696 82.729L36.1289 82.5251L36.4768 80.918L40.1424 81.7114Z" fill="#263238"/>
<path d="M32.1771 73.4404C32.2574 73.6493 32.2716 73.8737 32.2198 74.1132C32.1585 74.3963 32.0238 74.6258 31.8172 74.8021C31.6105 74.9787 31.3482 75.0928 31.0316 75.1453C30.7147 75.1974 30.3645 75.1822 29.9815 75.0991C29.5979 75.0163 29.274 74.8852 29.0092 74.7073C28.7447 74.5291 28.5557 74.3173 28.4423 74.0715C28.3289 73.826 28.3029 73.5615 28.3646 73.2783C28.4164 73.0385 28.5219 72.8404 28.6815 72.683C28.8408 72.5263 29.0436 72.415 29.2908 72.3499C29.1435 72.2084 29.0411 72.0488 28.9842 71.8696C28.9277 71.6907 28.921 71.4989 28.9656 71.2942C29.0231 71.0284 29.147 70.8135 29.3375 70.6498C29.5281 70.4861 29.7679 70.3793 30.0567 70.3304C30.3456 70.2808 30.6619 70.2937 31.0063 70.368C31.3546 70.4435 31.651 70.5636 31.8962 70.7282C32.1408 70.8928 32.3158 71.0897 32.422 71.3175C32.5275 71.5457 32.5516 71.7925 32.4941 72.0583C32.4495 72.263 32.3648 72.4352 32.2387 72.5743C32.113 72.7136 31.9515 72.8163 31.7546 72.8833C31.9559 73.0458 32.0968 73.2316 32.1771 73.4404ZM30.8193 74.2785C30.9997 74.1919 31.1119 74.0491 31.1555 73.8487C31.1988 73.6481 31.1558 73.4727 31.0265 73.3216C30.8973 73.1706 30.6998 73.066 30.4344 73.0085C30.1727 72.9522 29.9528 72.9661 29.7749 73.0508C29.597 73.1355 29.4867 73.2777 29.4434 73.478C29.3991 73.6828 29.4399 73.8607 29.5669 74.0114C29.694 74.1619 29.8883 74.2655 30.15 74.3221C30.4154 74.3793 30.6385 74.3647 30.8193 74.2785ZM30.2915 71.1886C30.1405 71.2629 30.0457 71.3896 30.0071 71.5681C29.9692 71.7423 30.003 71.8933 30.1076 72.021C30.2119 72.1486 30.3737 72.2358 30.5917 72.2829C30.8091 72.33 30.9943 72.3177 31.1466 72.246C31.2989 72.1742 31.3941 72.051 31.432 71.8769C31.4705 71.6983 31.4355 71.5435 31.3271 71.413C31.2184 71.2825 31.055 71.193 30.8379 71.146C30.624 71.0995 30.4416 71.114 30.2915 71.1886Z" fill="#263238"/>
<path d="M31.7709 58.1705C32.0477 58.6385 32.1071 59.2386 31.9488 59.9704C31.8366 60.489 31.6432 60.9124 31.3696 61.2407C31.0956 61.5691 30.7613 61.7909 30.3669 61.9059C29.9725 62.0213 29.5443 62.0288 29.0824 61.9287C28.8381 61.8759 28.6115 61.7982 28.4011 61.6958C28.1909 61.5931 28.0177 61.4746 27.8828 61.3409L28.4431 60.6479C28.6324 60.8486 28.901 60.9867 29.2495 61.0622C29.6372 61.1463 29.9687 61.0982 30.2452 60.9184C30.5211 60.7389 30.7148 60.4353 30.8257 60.008C30.4917 60.2229 30.0834 60.2782 29.5993 60.1733C29.3073 60.1101 29.0549 59.9938 28.8406 59.8241C28.6264 59.6547 28.4728 59.4471 28.3805 59.2013C28.2876 58.9554 28.2718 58.6913 28.3331 58.4078C28.3992 58.1029 28.5335 57.8516 28.7363 57.6535C28.9383 57.456 29.1851 57.3233 29.4755 57.2563C29.7662 57.1893 30.0724 57.1906 30.3947 57.2604C31.0349 57.3988 31.4937 57.7022 31.7709 58.1705ZM30.6131 59.3631C30.7869 59.2661 30.8952 59.1175 30.9389 58.9172C30.9821 58.7169 30.9468 58.538 30.8327 58.3809C30.7183 58.2239 30.5372 58.1187 30.2888 58.0649C30.0623 58.016 29.8651 58.0371 29.697 58.1285C29.5292 58.2198 29.4227 58.3699 29.3775 58.5791C29.3323 58.788 29.3668 58.97 29.4815 59.1248C29.5965 59.2797 29.7709 59.3823 30.0063 59.4332C30.2367 59.4835 30.4393 59.4601 30.6131 59.3631Z" fill="#263238"/>
<path d="M35.9946 45.7096L35.2185 50.3248L34.1504 50.1453L34.7824 46.3871L33.8594 46.232L34.0035 45.375L35.9946 45.7096Z" fill="#263238"/>
<path d="M37.0123 50.4149C36.7453 50.1757 36.5573 49.8628 36.448 49.476C36.3389 49.0896 36.3263 48.6478 36.41 48.151C36.4935 47.6543 36.6499 47.2413 36.8793 46.9114C37.109 46.5815 37.389 46.3473 37.7199 46.2086C38.0501 46.0699 38.4068 46.0326 38.7892 46.097C39.1716 46.1612 39.4964 46.3132 39.7637 46.5521C40.0304 46.7913 40.2185 47.1045 40.3275 47.4912C40.4365 47.878 40.4492 48.3195 40.366 48.8162C40.2823 49.313 40.1259 49.7263 39.8965 50.0559C39.667 50.3858 39.3871 50.62 39.0565 50.7587C38.726 50.8974 38.3692 50.9347 37.9869 50.8705C37.6042 50.8061 37.2794 50.6541 37.0123 50.4149ZM38.8619 49.7156C39.0629 49.501 39.2063 49.1408 39.2913 48.6352C39.3763 48.1296 39.3586 47.7425 39.2386 47.4739C39.1188 47.2053 38.9184 47.0469 38.6372 46.9999C38.3601 46.9534 38.1215 47.0375 37.9202 47.252C37.7192 47.4669 37.5761 47.8271 37.4911 48.3324C37.4061 48.838 37.4235 49.2251 37.5432 49.4937C37.663 49.7623 37.8611 49.9203 38.1382 49.9668C38.4198 50.0142 38.6606 49.9304 38.8619 49.7156Z" fill="#263238"/>
<path d="M46.5839 38.8313L45.6261 43.412L44.5659 43.1902L45.3461 39.4605L44.4297 39.2686L44.6076 38.418L46.5839 38.8313Z" fill="#263238"/>
<path d="M49.1499 39.3661L48.1922 43.9469L47.132 43.7254L47.9122 39.9953L46.9961 39.8038L47.174 38.9531L49.1499 39.3661Z" fill="#263238"/>
<path d="M55.033 97.6636L55.02 95.4516L55.1771 95.4507L55.19 97.6627L55.033 97.6636ZM52.4326 97.5666L52.2696 97.554L52.4528 95.3492L52.6023 95.3612L52.4326 97.5666ZM57.8021 97.54L57.5926 95.3378L57.743 95.3243L57.9516 97.5265L57.8021 97.54ZM49.6923 97.2399L49.5317 97.2136L49.8964 95.032L50.0452 95.0563L49.6923 97.2399ZM60.5244 97.1864L60.1462 95.007L60.2928 94.9811L60.6859 97.158L60.5244 97.1864ZM46.9879 96.6869L46.8356 96.6489L47.3706 94.5023L47.5229 94.5403L46.9879 96.6869ZM63.2218 96.6025L62.6609 94.4625L62.8107 94.4234L63.3747 96.562L63.2218 96.6025ZM44.3427 95.9139L44.1882 95.8611L44.9055 93.7689L45.0483 93.8173L44.3427 95.9139ZM65.8566 95.7957L65.1257 93.7079L65.2654 93.6583L66.0115 95.7407L65.8566 95.7957ZM41.7635 94.9207L41.6194 94.8578L42.5058 92.831L42.6499 92.8939L41.7635 94.9207ZM68.4219 94.7687L67.5115 92.753L67.6518 92.6891L68.5669 94.703L68.4219 94.7687ZM39.2816 93.7161L39.1429 93.6412L40.1939 91.6947L40.3327 91.7696L39.2816 93.7161ZM70.8876 93.5341L69.8155 91.5993L69.9475 91.5259L71.0295 93.4551L70.8876 93.5341ZM36.9088 92.3058L36.771 92.2158L37.992 90.371L38.1175 90.4538L36.9088 92.3058ZM73.2425 92.0985L72.0154 90.2582L72.1384 90.1754L73.3803 92.0059L73.2425 92.0985ZM34.6601 90.6987L34.535 90.6004L35.9023 88.8617L36.0246 88.9578L34.6601 90.6987ZM75.4693 90.4724L74.0966 88.7376L74.2132 88.6443L75.5983 90.3691L75.4693 90.4724ZM32.5591 88.9123L32.439 88.8001L33.9501 87.1851L34.0601 87.2871L32.5591 88.9123ZM77.5546 88.6655L76.0438 87.0504L76.1513 86.9487L77.6756 88.5514L77.5546 88.6655ZM30.6138 86.9544L30.5035 86.833L32.1435 85.3488L32.2446 85.4603L30.6138 86.9544ZM79.4851 86.6864L77.8384 85.2094L77.9398 85.0957L79.5925 86.5657L79.4851 86.6864ZM28.8382 84.841L28.7386 84.7111L30.4972 83.3693L30.5888 83.4888L28.8382 84.841ZM81.243 84.5521L79.4734 83.2253L79.5678 83.0995L81.3374 84.4264L81.243 84.5521ZM27.2458 82.5876L27.1577 82.4501L29.0208 81.2578L29.1023 81.3845L27.2458 82.5876ZM82.8103 82.2842L80.9402 81.1024L81.0211 80.9738L82.8969 82.1464L82.8103 82.2842ZM25.8466 80.2106L25.7688 80.0643L27.7258 79.0335L27.7954 79.1643L25.8466 80.2106ZM84.1849 79.8861L82.2197 78.8708L82.2905 78.7333L84.2589 79.7429L84.1849 79.8861ZM24.6486 77.7231L24.5848 77.5736L26.6195 76.7065L26.6792 76.8452L24.6486 77.7231ZM85.3497 77.3853L83.308 76.5349L83.3646 76.3974L85.4129 77.2326L85.3497 77.3853ZM23.6624 75.1445L23.6122 74.9931L25.712 74.2976L25.7603 74.443L23.6624 75.1445ZM86.3005 74.7982L84.1969 74.1143L84.2412 73.975L86.3514 74.6392L86.3005 74.7982ZM22.8964 72.4933L22.8585 72.3365L25.0098 71.8218L25.0455 71.9693L22.8964 72.4933ZM87.0346 72.1333L84.8789 71.6372L84.9124 71.4906L87.0845 71.9128L87.0346 72.1333ZM22.3548 69.787L22.3311 69.6341L24.5165 69.2915L24.5406 69.447L22.3548 69.787ZM87.5532 69.369L85.3633 69.0542L85.3841 68.9063L87.5756 69.2062L87.5532 69.369ZM22.0438 67.0473L22.0328 66.8877L24.2394 66.7376L24.2502 66.8896L22.0438 67.0473ZM87.8328 66.6232L85.6246 66.4924L85.6331 66.3423L87.842 66.4602L87.8328 66.6232ZM24.1765 64.3193L21.9648 64.2864L21.9677 64.123L24.1794 64.1689L24.1765 64.3193ZM85.6695 63.917L85.6654 63.7669L87.8761 63.7015L87.8809 63.8646L85.6695 63.917ZM24.3194 61.7471L22.1178 61.5322L22.1342 61.3688L24.3342 61.5979L24.3194 61.7471ZM85.4982 61.3533L85.4808 61.1985L87.6786 60.9498L87.6966 61.1065L85.4982 61.3533ZM24.6764 59.1963L22.5005 58.7988L22.5305 58.637L24.7036 59.0494L24.6764 59.1963ZM85.1114 58.8108L85.0805 58.6563L87.2498 58.2249L87.2801 58.3772L85.1114 58.8108ZM25.2437 56.6828L23.1072 56.1096L23.1511 55.9491L25.2825 56.5409L25.2437 56.6828ZM84.5095 56.3033L84.4681 56.1592L86.5925 55.5427L86.6377 55.6991L84.5095 56.3033ZM26.016 54.2259L23.9342 53.478L23.9895 53.3257L26.0675 54.0834L26.016 54.2259ZM83.7024 53.8616L83.649 53.7213L85.7122 52.9243L85.7706 53.0763L83.7024 53.8616ZM26.9902 51.8436L24.9788 50.9228L25.0484 50.7727L27.0524 51.709L26.9902 51.8436ZM82.6925 51.4925L82.6274 51.356L84.6185 50.3932L84.6893 50.5401L82.6925 51.4925ZM28.16 49.5542L26.2362 48.4624L26.3165 48.3218L28.2359 49.4212L28.16 49.5542ZM81.4872 49.2132L81.4117 49.0843L83.3175 47.9615L83.4006 48.1031L81.4872 49.2132ZM29.5213 47.3668L27.6952 46.119L27.7884 45.9834L29.6067 47.243L29.5213 47.3668ZM80.0994 47.0464L80.0121 46.9225L81.8181 45.645L81.9116 45.7774L80.0994 47.0464ZM31.0618 45.303L29.3466 43.9063L29.4506 43.7793L31.1573 45.1864L31.0618 45.303ZM78.5358 45.0022L78.4366 44.8834L80.1313 43.4623L80.2337 43.5843L78.5358 45.0022ZM32.7692 43.377L31.1794 41.8394L31.2919 41.7231L32.8754 43.2677L32.7692 43.377ZM76.8047 43.092L76.6989 42.9852L78.2666 41.4245L78.3816 41.5411L76.8047 43.092ZM34.6349 41.5979L33.1749 39.9361L33.3004 39.8268L34.7464 41.5006L34.6349 41.5979ZM74.923 41.3366L74.8086 41.2386L76.2372 39.5499L76.3623 39.6564L74.923 41.3366ZM36.6399 39.9822L35.3241 38.2041L35.4549 38.108L36.7622 39.8922L36.6399 39.9822ZM72.8987 39.744L72.7732 39.6536L74.0625 37.8562L74.1924 37.9494L72.8987 39.744ZM38.7729 38.5391L37.6097 36.6576L37.7471 36.5729L38.9024 38.4594L38.7729 38.5391ZM70.7486 38.3273L70.6156 38.2483L71.7481 36.3479L71.8856 36.4301L70.7486 38.3273ZM41.0171 37.2789L40.0176 35.3057L40.1614 35.2331L41.1533 37.2103L41.0171 37.2789ZM68.4895 37.099L68.3511 37.0317L69.314 35.0403L69.4577 35.1101L68.4895 37.099ZM43.3609 36.2089L42.526 34.1606L42.6771 34.0996L43.5006 36.1523L43.3609 36.2089ZM66.1306 36.0632L65.9871 36.0076L66.7841 33.9441L66.9332 34.0019L66.1306 36.0632ZM45.7833 35.3389L45.1232 33.2277L45.2755 33.1803L45.9296 35.2934L45.7833 35.3389ZM63.6977 35.2299L63.5485 35.1863L64.1676 33.0625L64.3196 33.1073L63.6977 35.2299ZM48.2687 34.6756L47.7909 32.5158L47.9476 32.4813L48.4178 34.6428L48.2687 34.6756ZM61.1943 34.5995L61.0468 34.5688L61.4904 32.402L61.6503 32.4352L61.1943 34.5995ZM50.8017 34.2231L50.5063 32.0307L50.6617 32.0102L50.9563 34.2026L50.8017 34.2231ZM58.6534 34.1783L58.5042 34.1599L58.7659 31.9634L58.928 31.9833L58.6534 34.1783ZM53.3645 33.9855L53.2533 31.7763L53.4056 31.7691L53.5174 33.9782L53.3645 33.9855ZM56.0865 33.9703L55.9364 33.9646L56.0148 31.7539L56.1782 31.7602L56.0865 33.9703Z" fill="#263238"/>
<path d="M59.5722 64.6143L42.4668 69.3063C42.2699 69.3568 42.0614 69.3385 41.8765 69.2538L41.8556 69.2444C41.2799 68.9814 41.1557 68.2177 41.6186 67.786C41.7242 67.6877 41.8518 67.6163 41.9912 67.5784L59.1443 62.7148L59.5722 64.6143Z" fill="#455A64"/>
<path d="M59.9343 46.4465C59.8604 45.5693 58.6213 45.4195 58.3613 46.2607C58.3568 46.2756 58.3521 46.2908 58.3477 46.3059C57.8996 47.8385 53.5078 70.162 53.5078 70.162L55.4844 70.4379L59.9719 46.8918L59.9343 46.4465Z" fill="#455A64"/>
<path d="M59.5618 69.3529L60.4848 68.4639L39.918 51.2773L59.5618 69.3529Z" fill="#263238"/>
<path d="M57.1661 64.4975C57.332 65.6051 56.5683 66.6374 55.461 66.803C54.3534 66.9686 53.3214 66.2051 53.1555 65.0976C52.9896 63.99 53.7533 62.9579 54.8606 62.792C55.9682 62.6268 57.0002 63.3902 57.1661 64.4975Z" fill="#FF725E"/>
</svg>
