<?xml version="1.0" encoding="UTF-8"?>
<svg version="1.1" xmlns="http://www.w3.org/2000/svg" width="51" height="30">
<path d="M0 0 C4.39231729 2.54821461 8.24647206 5.83936526 12.046875 9.1875 C12.65144531 9.67347656 13.25601563 10.15945313 13.87890625 10.66015625 C15.046875 12.1875 15.046875 12.1875 15.0078125 14.30859375 C14.81445312 15.07300781 14.62109375 15.83742188 14.421875 16.625 C14.24398437 17.38683594 14.06609375 18.14867188 13.8828125 18.93359375 C12.92780652 21.50853977 11.93837479 23.19115958 10.046875 25.1875 C5.60127831 26.95899014 1.43556269 26.70981771 -2.99609375 25.04296875 C-6.04367962 23.51724452 -8.99914998 21.88654494 -11.953125 20.1875 C-17.30034976 17.41172912 -17.30034976 17.41172912 -22.890625 15.1875 C-24.953125 14.1875 -24.953125 14.1875 -25.765625 12.5 C-25.8584375 11.3553125 -25.8584375 11.3553125 -25.953125 10.1875 C-26.0975 9.0325 -26.241875 7.8775 -26.390625 6.6875 C-25.953125 3.1875 -25.953125 3.1875 -23.140625 0.8125 C-15.95487872 -2.85082164 -7.49182918 -3.21962907 0 0 Z " fill="#D3D4D4" transform="translate(30.953125,3.8125)"/>
<path d="M0 0 C0.57621094 0.39832031 1.15242188 0.79664063 1.74609375 1.20703125 C2.63296875 1.68140625 3.51984375 2.15578125 4.43359375 2.64453125 C6.74609375 4.20703125 6.74609375 4.20703125 7.74609375 7.20703125 C7.14815702 9.55891572 6.4872758 11.8962872 5.74609375 14.20703125 C1.0740817 15.41271178 -3.46886917 15.30085551 -8.25390625 15.20703125 C-9.51055603 12.30102864 -10.25390625 10.41098541 -10.25390625 7.20703125 C-12.72890625 6.21703125 -12.72890625 6.21703125 -15.25390625 5.20703125 C-15.25390625 4.54703125 -15.25390625 3.88703125 -15.25390625 3.20703125 C-13.17679879 2.48064396 -11.09190313 1.77649717 -9.00390625 1.08203125 C-7.84375 0.68757812 -6.68359375 0.293125 -5.48828125 -0.11328125 C-2.25390625 -0.79296875 -2.25390625 -0.79296875 0 0 Z " fill="#F1F2F2" transform="translate(38.25390625,9.79296875)"/>
<path d="M0 0 C3.68325543 0.3953068 6.90605696 1.65450354 10.3125 3.0625 C11.19550781 3.42472656 12.07851563 3.78695313 12.98828125 4.16015625 C13.98408203 4.57587891 13.98408203 4.57587891 15 5 C15.66 4.01 16.32 3.02 17 2 C18.9375 2.6875 18.9375 2.6875 21 4 C21.33 5.65 21.66 7.3 22 9 C26.62 8.67 31.24 8.34 36 8 C33 13 33 13 30.94140625 13.91796875 C22.96785565 14.82137596 17.79443231 11.90797003 11 8 C6.74528193 5.79879875 2.49045731 3.68392149 -2 2 C-1.34 1.34 -0.68 0.68 0 0 Z " fill="#1C1C1C" transform="translate(8,16)"/>
<path d="M0 0 C5.35048061 0.37328935 7.50912907 1.9957657 11 6 C10.67 6.66 10.34 7.32 10 8 C8.68 8 7.36 8 6 8 C6 8.66 6 9.32 6 10 C6.66 10 7.32 10 8 10 C8 10.99 8 11.98 8 13 C9.98 13 11.96 13 14 13 C13.34 14.32 12.68 15.64 12 17 C11.27554687 16.6390625 10.55109375 16.278125 9.8046875 15.90625 C8.83789062 15.4421875 7.87109375 14.978125 6.875 14.5 C5.92367188 14.0359375 4.97234375 13.571875 3.9921875 13.09375 C0.78803369 11.92251884 -1.61717313 11.79923876 -5 12 C-5.33 10.02 -5.66 8.04 -6 6 C-4.68 6.33 -3.36 6.66 -2 7 C-2 7.66 -2 8.32 -2 9 C-0.02463255 8.65213292 -0.02463255 8.65213292 2 8 C2.33 7.34 2.66 6.68 3 6 C3.33 5.67 3.66 5.34 4 5 C2.68 4.34 1.36 3.68 0 3 C0 2.01 0 1.02 0 0 Z " fill="#C8C9C8" transform="translate(11,5)"/>
<path d="M0 0 C3.3 0 6.6 0 10 0 C10 0.66 10 1.32 10 2 C14.455 2.99 14.455 2.99 19 4 C18 6 18 6 15.375 7.125 C11.60576492 8.10220909 8.8673055 8.57293415 5 8 C2.86395882 5.41426594 1.48888243 2.97776485 0 0 Z " fill="#505050" transform="translate(18,4)"/>
<path d="M0 0 C0.8353125 0.12568359 0.8353125 0.12568359 1.6875 0.25390625 C7.05791108 0.97056584 11.65383432 0.87482711 17 0 C16.67 1.65 16.34 3.3 16 5 C11.32798795 6.20568053 6.78503708 6.09382426 2 6 C1.34 4.02 0.68 2.04 0 0 Z " fill="#C7C7C7" transform="translate(28,19)"/>
<path d="M0 0 C0 0.33 0 0.66 0 1 C-1.65 1 -3.3 1 -5 1 C-4.67 1.99 -4.34 2.98 -4 4 C-1.49552484 5.21869929 -1.49552484 5.21869929 1 6 C0.67 6.66 0.34 7.32 0 8 C-0.66 7.67 -1.32 7.34 -2 7 C-2.33 7.99 -2.66 8.98 -3 10 C-4.32 10 -5.64 10 -7 10 C-7.33 9.34 -7.66 8.68 -8 8 C-8.99 7.67 -9.98 7.34 -11 7 C-10.8125 4.6875 -10.8125 4.6875 -10 2 C-6.46899884 -0.94250097 -4.36267794 -1.37112735 0 0 Z " fill="#DDDDDD" transform="translate(16,4)"/>
<path d="M0 0 C5.35048061 0.37328935 7.50912907 1.9957657 11 6 C10.67 6.66 10.34 7.32 10 8 C9.01 8 8.02 8 7 8 C7 7.01 7 6.02 7 5 C4.03 4.505 4.03 4.505 1 4 C0.67 2.68 0.34 1.36 0 0 Z " fill="#474847" transform="translate(11,5)"/>
<path d="M0 0 C7.08212915 -0.35150273 12.55690646 -0.10223022 19 3 C19.33 3.66 19.66 4.32 20 5 C17.03 4.505 17.03 4.505 14 4 C14 3.34 14 2.68 14 2 C13.24074219 2.08378906 12.48148438 2.16757813 11.69921875 2.25390625 C10.70535156 2.35574219 9.71148437 2.45757812 8.6875 2.5625 C7.70136719 2.66691406 6.71523438 2.77132813 5.69921875 2.87890625 C3 3 3 3 0 2 C0 1.34 0 0.68 0 0 Z " fill="#9E9E9E" transform="translate(14,2)"/>
<path d="M0 0 C4.455 0.99 4.455 0.99 9 2 C8 4 8 4 6.15234375 4.6328125 C5.05599609 4.87644531 5.05599609 4.87644531 3.9375 5.125 C3.20402344 5.29257813 2.47054688 5.46015625 1.71484375 5.6328125 C1.14894531 5.75398437 0.58304688 5.87515625 0 6 C-0.33 5.01 -0.66 4.02 -1 3 C-0.34 2.67 0.32 2.34 1 2 C0.67 1.34 0.34 0.68 0 0 Z " fill="#565858" transform="translate(28,6)"/>
<path d="M0 0 C2.875 -0.1875 2.875 -0.1875 6 0 C6.66 0.99 7.32 1.98 8 3 C7.01 3.495 7.01 3.495 6 4 C6 4.66 6 5.32 6 6 C4.68 6 3.36 6 2 6 C2 4.35 2 2.7 2 1 C1.34 0.67 0.68 0.34 0 0 Z " fill="#404241" transform="translate(22,6)"/>
<path d="M0 0 C0 1.32 0 2.64 0 4 C-3.37462715 3.45276317 -5.08235 2.9451 -8 1 C-5.23735711 0.40267181 -2.83967231 0 0 0 Z " fill="#D1D3D2" transform="translate(45,19)"/>
<path d="M0 0 C1.32 0.33 2.64 0.66 4 1 C4.33 2.32 4.66 3.64 5 5 C3.68 5.33 2.36 5.66 1 6 C0.67 4.02 0.34 2.04 0 0 Z " fill="#8A8A8A" transform="translate(5,11)"/>
<path d="M0 0 C-1.65 1.65 -3.3 3.3 -5 5 C-5.33 3.35 -5.66 1.7 -6 0 C-3 -1 -3 -1 0 0 Z " fill="#E9EAEC" transform="translate(39,10)"/>
</svg>
