<svg width="60" height="24" viewBox="0 0 60 24" fill="none" xmlns="http://www.w3.org/2000/svg">
<path d="M0 18.0005V0.480469H3.936V18.0005H0ZM3.456 18.0005V14.5445H10.8V18.0005H3.456Z" fill="white"/>
<path d="M19.4107 18.4565C18.2587 18.4565 17.2348 18.2805 16.3388 17.9285C15.4428 17.5605 14.6827 17.0645 14.0588 16.4405C13.4508 15.8165 12.9867 15.1045 12.6667 14.3045C12.3468 13.4885 12.1868 12.6325 12.1868 11.7365V11.1845C12.1868 10.2725 12.3468 9.40847 12.6667 8.59247C13.0028 7.76047 13.4828 7.03247 14.1068 6.40847C14.7468 5.78447 15.5147 5.29647 16.4107 4.94447C17.3067 4.57647 18.3067 4.39247 19.4107 4.39247C20.5467 4.39247 21.5547 4.57647 22.4347 4.94447C23.3307 5.29647 24.0907 5.78447 24.7148 6.40847C25.3387 7.03247 25.8188 7.76047 26.1548 8.59247C26.4907 9.40847 26.6588 10.2725 26.6588 11.1845V11.7365C26.6588 12.6325 26.4988 13.4885 26.1788 14.3045C25.8588 15.1045 25.3868 15.8165 24.7628 16.4405C24.1548 17.0645 23.4028 17.5605 22.5068 17.9285C21.6108 18.2805 20.5788 18.4565 19.4107 18.4565ZM19.4107 15.2165C20.1628 15.2165 20.7868 15.0565 21.2828 14.7365C21.7788 14.4165 22.1548 13.9685 22.4108 13.3925C22.6828 12.8165 22.8188 12.1765 22.8188 11.4725C22.8188 10.7205 22.6828 10.0645 22.4108 9.50447C22.1388 8.92847 21.7467 8.47247 21.2348 8.13647C20.7388 7.80047 20.1307 7.63247 19.4107 7.63247C18.7067 7.63247 18.0988 7.80047 17.5868 8.13647C17.0748 8.47247 16.6827 8.92847 16.4107 9.50447C16.1547 10.0645 16.0268 10.7205 16.0268 11.4725C16.0268 12.1765 16.1547 12.8165 16.4107 13.3925C16.6667 13.9685 17.0508 14.4165 17.5627 14.7365C18.0747 15.0565 18.6908 15.2165 19.4107 15.2165Z" fill="white"/>
<path d="M34.5227 23.2325C33.8827 23.2325 33.2267 23.2085 32.5547 23.1605C31.8827 23.1125 31.2667 23.0485 30.7067 22.9685V19.7285C31.2667 19.8085 31.8827 19.8725 32.5547 19.9205C33.2427 19.9845 33.8667 20.0165 34.4267 20.0165C35.4667 20.0165 36.3067 19.8965 36.9467 19.6565C37.6027 19.4165 38.0827 19.0485 38.3867 18.5525C38.6907 18.0725 38.8427 17.4485 38.8427 16.6805V14.0645L39.5387 12.5285C39.5067 13.6965 39.2747 14.6965 38.8427 15.5285C38.4267 16.3605 37.8427 17.0005 37.0907 17.4485C36.3387 17.8805 35.4427 18.0965 34.4027 18.0965C33.5067 18.0965 32.6907 17.9365 31.9547 17.6165C31.2347 17.2805 30.6187 16.8165 30.1067 16.2245C29.5947 15.6325 29.2027 14.9445 28.9307 14.1605C28.6587 13.3605 28.5227 12.4965 28.5227 11.5685V11.0165C28.5227 10.0885 28.6667 9.22447 28.9547 8.42447C29.2427 7.62447 29.6587 6.92847 30.2027 6.33647C30.7467 5.74447 31.3947 5.28847 32.1467 4.96847C32.8987 4.63247 33.7307 4.46447 34.6427 4.46447C35.6987 4.46447 36.6107 4.69647 37.3787 5.16047C38.1627 5.62447 38.7787 6.30447 39.2267 7.20047C39.6747 8.09647 39.9147 9.17647 39.9467 10.4405L39.4187 10.5845V4.84847H42.4667V16.4405C42.4667 18.0565 42.1787 19.3605 41.6027 20.3525C41.0267 21.3445 40.1467 22.0725 38.9627 22.5365C37.7947 23.0005 36.3147 23.2325 34.5227 23.2325ZM35.6027 14.8565C36.1947 14.8565 36.7307 14.7285 37.2107 14.4725C37.6907 14.2005 38.0667 13.8165 38.3387 13.3205C38.6267 12.8245 38.7707 12.2245 38.7707 11.5205V10.8245C38.7707 10.1365 38.6187 9.56047 38.3147 9.09647C38.0267 8.61647 37.6427 8.25647 37.1627 8.01647C36.6827 7.76047 36.1707 7.63247 35.6267 7.63247C34.9867 7.63247 34.4187 7.78447 33.9227 8.08847C33.4267 8.39247 33.0427 8.81647 32.7707 9.36047C32.4987 9.90447 32.3627 10.5445 32.3627 11.2805C32.3627 12.0325 32.4987 12.6805 32.7707 13.2245C33.0587 13.7525 33.4427 14.1605 33.9227 14.4485C34.4187 14.7205 34.9787 14.8565 35.6027 14.8565Z" fill="white"/>
<path d="M52.1998 18.4565C51.0478 18.4565 50.0238 18.2805 49.1278 17.9285C48.2318 17.5605 47.4718 17.0645 46.8478 16.4405C46.2398 15.8165 45.7758 15.1045 45.4558 14.3045C45.1358 13.4885 44.9758 12.6325 44.9758 11.7365V11.1845C44.9758 10.2725 45.1358 9.40847 45.4558 8.59247C45.7918 7.76047 46.2718 7.03247 46.8958 6.40847C47.5358 5.78447 48.3038 5.29647 49.1998 4.94447C50.0958 4.57647 51.0958 4.39247 52.1998 4.39247C53.3358 4.39247 54.3438 4.57647 55.2238 4.94447C56.1198 5.29647 56.8798 5.78447 57.5038 6.40847C58.1278 7.03247 58.6078 7.76047 58.9438 8.59247C59.2798 9.40847 59.4478 10.2725 59.4478 11.1845V11.7365C59.4478 12.6325 59.2878 13.4885 58.9678 14.3045C58.6478 15.1045 58.1758 15.8165 57.5518 16.4405C56.9438 17.0645 56.1918 17.5605 55.2958 17.9285C54.3998 18.2805 53.3678 18.4565 52.1998 18.4565ZM52.1998 15.2165C52.9518 15.2165 53.5758 15.0565 54.0718 14.7365C54.5678 14.4165 54.9438 13.9685 55.1998 13.3925C55.4718 12.8165 55.6078 12.1765 55.6078 11.4725C55.6078 10.7205 55.4718 10.0645 55.1998 9.50447C54.9278 8.92847 54.5358 8.47247 54.0238 8.13647C53.5278 7.80047 52.9198 7.63247 52.1998 7.63247C51.4958 7.63247 50.8878 7.80047 50.3758 8.13647C49.8638 8.47247 49.4718 8.92847 49.1998 9.50447C48.9438 10.0645 48.8158 10.7205 48.8158 11.4725C48.8158 12.1765 48.9438 12.8165 49.1998 13.3925C49.4558 13.9685 49.8398 14.4165 50.3518 14.7365C50.8638 15.0565 51.4798 15.2165 52.1998 15.2165Z" fill="white"/>
</svg>
