<svg width="20" height="21" viewBox="0 0 20 21" fill="none" xmlns="http://www.w3.org/2000/svg">
<path d="M11.6665 8.2513H9.58317C8.89282 8.2513 8.33317 8.81095 8.33317 9.5013C8.33317 10.1917 8.89282 10.7513 9.58317 10.7513H10.4165C11.1069 10.7513 11.6665 11.3109 11.6665 12.0013C11.6665 12.6917 11.1069 13.2513 10.4165 13.2513H8.33317M9.99984 7.41797V8.2513M9.99984 13.2513V14.0846M14.9998 10.7513H15.0082M4.99984 10.7513H5.00817M1.6665 7.58464L1.6665 13.918C1.6665 14.8514 1.6665 15.3181 1.84816 15.6746C2.00795 15.9882 2.26292 16.2432 2.57652 16.403C2.93304 16.5846 3.39975 16.5846 4.33317 16.5846L15.6665 16.5846C16.5999 16.5846 17.0666 16.5846 17.4232 16.403C17.7368 16.2432 17.9917 15.9882 18.1515 15.6746C18.3332 15.3181 18.3332 14.8514 18.3332 13.918V7.58464C18.3332 6.65122 18.3332 6.18451 18.1515 5.82799C17.9917 5.51438 17.7368 5.25941 17.4232 5.09963C17.0666 4.91797 16.5999 4.91797 15.6665 4.91797L4.33317 4.91797C3.39975 4.91797 2.93304 4.91797 2.57652 5.09962C2.26292 5.25941 2.00795 5.51438 1.84816 5.82798C1.6665 6.1845 1.6665 6.65121 1.6665 7.58464ZM15.4165 10.7513C15.4165 10.9814 15.23 11.168 14.9998 11.168C14.7697 11.168 14.5832 10.9814 14.5832 10.7513C14.5832 10.5212 14.7697 10.3346 14.9998 10.3346C15.23 10.3346 15.4165 10.5212 15.4165 10.7513ZM5.4165 10.7513C5.4165 10.9814 5.22996 11.168 4.99984 11.168C4.76972 11.168 4.58317 10.9814 4.58317 10.7513C4.58317 10.5212 4.76972 10.3346 4.99984 10.3346C5.22996 10.3346 5.4165 10.5212 5.4165 10.7513Z" stroke="#1F2126" stroke-width="1.5" stroke-linecap="round" stroke-linejoin="round"/>
</svg>
