<svg width="60" height="61" viewBox="0 0 60 61" fill="none" xmlns="http://www.w3.org/2000/svg">
<path fill-rule="evenodd" clip-rule="evenodd" d="M30 6.75C43.1167 6.75 53.75 17.3833 53.75 30.5C53.75 43.6167 43.1167 54.25 30 54.25C16.8833 54.25 6.25 43.6167 6.25 30.5C6.25 17.3833 16.8833 6.75 30 6.75ZM56.25 30.5C56.25 16.0025 44.4975 4.25 30 4.25C15.5025 4.25 3.75 16.0025 3.75 30.5C3.75 44.9975 15.5025 56.75 30 56.75C44.4975 56.75 56.25 44.9975 56.25 30.5Z" fill="#F14119"/>
<path d="M19.7744 19.459C21.0254 19.459 21.9351 20.4783 21.9351 21.6106V30.7831H22.8449V18.1001C22.8449 16.8545 23.8684 15.9486 25.0056 15.9486C26.2566 15.9486 27.1664 16.9678 27.1664 18.1001V30.7831H28.0761V16.4016C28.0761 15.1559 29.0996 14.25 30.2369 14.25C31.4878 14.25 32.3976 15.2691 32.3976 16.4016V30.7831H33.3074V19.912C33.3074 18.6664 34.3309 17.7605 35.468 17.7605C36.6052 17.7605 37.6287 18.7796 37.6287 19.912V30.2169L36.2641 34.8598L37.6287 32.4818L38.6523 30.8964C39.562 29.311 41.7228 28.7448 43.3149 29.6508C44.907 30.6699 45.4756 32.7083 44.5658 34.2935L39.6758 42.5601C38.1974 45.1646 35.468 46.75 32.5113 46.75H25.8017C21.2529 46.75 17.5 43.0131 17.5 38.4835V35.5393V31.5757V29.5375V21.4974C17.5 20.365 18.5235 19.459 19.7744 19.459Z" fill="#F14119"/>
</svg>
