<svg width="20" height="19" viewBox="0 0 20 19" fill="none" xmlns="http://www.w3.org/2000/svg">
<path d="M9.58317 3.66602H9.94517C12.4845 3.66602 13.7542 3.66602 14.2362 4.12209C14.6528 4.51632 14.8375 5.09708 14.725 5.65952C14.5948 6.3102 13.5583 7.04339 11.4851 8.50979L8.09794 10.9056C6.02476 12.372 4.98816 13.1052 4.85803 13.7558C4.74555 14.3183 4.93018 14.899 5.34681 15.2933C5.82878 15.7493 7.09847 15.7493 9.63784 15.7493H10.4165M6.6665 3.66602C6.6665 5.04673 5.54722 6.16602 4.1665 6.16602C2.78579 6.16602 1.6665 5.04673 1.6665 3.66602C1.6665 2.2853 2.78579 1.16602 4.1665 1.16602C5.54722 1.16602 6.6665 2.2853 6.6665 3.66602ZM18.3332 15.3327C18.3332 16.7134 17.2139 17.8327 15.8332 17.8327C14.4525 17.8327 13.3332 16.7134 13.3332 15.3327C13.3332 13.952 14.4525 12.8327 15.8332 12.8327C17.2139 12.8327 18.3332 13.952 18.3332 15.3327Z" stroke="#398DFA" stroke-width="2" stroke-linecap="round" stroke-linejoin="round"/>
</svg>
