<svg width="60" height="60" viewBox="0 0 60 60" fill="none" xmlns="http://www.w3.org/2000/svg">
<path fill-rule="evenodd" clip-rule="evenodd" d="M32.6148 5.65964C33.39 6.10259 34.0324 6.745 34.4753 7.52016L55.8594 44.9423C57.2295 47.3399 56.3965 50.3942 53.9989 51.7642C53.2434 52.196 52.3883 52.423 51.5182 52.423H8.75C5.98858 52.423 3.75 50.1845 3.75 47.423C3.75 46.5529 3.97708 45.6978 4.40878 44.9423L25.7929 7.52016C27.1629 5.12257 30.2172 4.28959 32.6148 5.65964ZM30 36.875C28.2143 36.875 26.875 38.195 26.875 39.955C26.875 41.795 28.1737 43.115 30 43.115C31.7857 43.115 33.125 41.795 33.125 39.995C33.125 38.195 31.7857 36.875 30 36.875ZM32.5 17.5H27.5V32.5H32.5V17.5Z" fill="#F7D116"/>
</svg>
